<mxfile host="Electron" agent="Mozilla/5.0 (Windows NT 10.0; Win64; x64) AppleWebKit/537.36 (KHTML, like Gecko) draw.io/24.7.17 Chrome/128.0.6613.36 Electron/32.0.1 Safari/537.36" version="24.7.17">
  <diagram id="R2lEEEUBdFMjLlhIrx00" name="Page-1">
    <mxGraphModel dx="2166" dy="508" grid="1" gridSize="10" guides="1" tooltips="1" connect="1" arrows="1" fold="1" page="1" pageScale="1" pageWidth="850" pageHeight="1100" background="#FFFFFF" math="0" shadow="0" extFonts="Permanent Marker^https://fonts.googleapis.com/css?family=Permanent+Marker">
      <root>
        <mxCell id="0" />
        <mxCell id="1" parent="0" />
        <mxCell id="qWs5OM4v0zsxPJ6uN8vS-3" value="" style="edgeStyle=orthogonalEdgeStyle;rounded=0;orthogonalLoop=1;jettySize=auto;html=1;" parent="1" source="qWs5OM4v0zsxPJ6uN8vS-1" target="qWs5OM4v0zsxPJ6uN8vS-2" edge="1">
          <mxGeometry relative="1" as="geometry" />
        </mxCell>
        <mxCell id="qWs5OM4v0zsxPJ6uN8vS-9" value="" style="edgeStyle=orthogonalEdgeStyle;rounded=0;orthogonalLoop=1;jettySize=auto;html=1;" parent="1" source="qWs5OM4v0zsxPJ6uN8vS-1" target="qWs5OM4v0zsxPJ6uN8vS-8" edge="1">
          <mxGeometry relative="1" as="geometry" />
        </mxCell>
        <mxCell id="qWs5OM4v0zsxPJ6uN8vS-17" value="" style="edgeStyle=orthogonalEdgeStyle;rounded=0;orthogonalLoop=1;jettySize=auto;html=1;" parent="1" source="qWs5OM4v0zsxPJ6uN8vS-1" target="qWs5OM4v0zsxPJ6uN8vS-16" edge="1">
          <mxGeometry relative="1" as="geometry" />
        </mxCell>
        <mxCell id="qWs5OM4v0zsxPJ6uN8vS-1" value="addresses" style="rounded=0;whiteSpace=wrap;html=1;fillColor=#d5e8d4;strokeColor=#82b366;" parent="1" vertex="1">
          <mxGeometry x="-10" y="25" width="80" height="20" as="geometry" />
        </mxCell>
        <mxCell id="qWs5OM4v0zsxPJ6uN8vS-20" value="" style="edgeStyle=orthogonalEdgeStyle;rounded=0;orthogonalLoop=1;jettySize=auto;html=1;" parent="1" source="qWs5OM4v0zsxPJ6uN8vS-2" target="qWs5OM4v0zsxPJ6uN8vS-19" edge="1">
          <mxGeometry relative="1" as="geometry" />
        </mxCell>
        <mxCell id="qWs5OM4v0zsxPJ6uN8vS-42" value="" style="edgeStyle=orthogonalEdgeStyle;rounded=0;orthogonalLoop=1;jettySize=auto;html=1;" parent="1" source="qWs5OM4v0zsxPJ6uN8vS-2" target="qWs5OM4v0zsxPJ6uN8vS-41" edge="1">
          <mxGeometry relative="1" as="geometry">
            <Array as="points">
              <mxPoint x="-20" y="110" />
              <mxPoint x="-20" y="155" />
            </Array>
          </mxGeometry>
        </mxCell>
        <mxCell id="qWs5OM4v0zsxPJ6uN8vS-133" value="" style="edgeStyle=orthogonalEdgeStyle;rounded=0;orthogonalLoop=1;jettySize=auto;html=1;entryX=0;entryY=0.5;entryDx=0;entryDy=0;" parent="1" source="qWs5OM4v0zsxPJ6uN8vS-2" target="qWs5OM4v0zsxPJ6uN8vS-32" edge="1">
          <mxGeometry relative="1" as="geometry" />
        </mxCell>
        <mxCell id="qWs5OM4v0zsxPJ6uN8vS-2" value="people" style="whiteSpace=wrap;html=1;rounded=0;fillColor=#d5e8d4;strokeColor=#82b366;" parent="1" vertex="1">
          <mxGeometry x="-10" y="90" width="50" height="20" as="geometry" />
        </mxCell>
        <mxCell id="qWs5OM4v0zsxPJ6uN8vS-11" value="" style="edgeStyle=orthogonalEdgeStyle;rounded=0;orthogonalLoop=1;jettySize=auto;html=1;" parent="1" source="qWs5OM4v0zsxPJ6uN8vS-8" target="qWs5OM4v0zsxPJ6uN8vS-10" edge="1">
          <mxGeometry relative="1" as="geometry" />
        </mxCell>
        <mxCell id="qWs5OM4v0zsxPJ6uN8vS-8" value="ubicado" style="rhombus;whiteSpace=wrap;html=1;rounded=0;" parent="1" vertex="1">
          <mxGeometry x="170" y="10" width="70" height="30" as="geometry" />
        </mxCell>
        <mxCell id="qWs5OM4v0zsxPJ6uN8vS-84" value="" style="edgeStyle=orthogonalEdgeStyle;rounded=0;orthogonalLoop=1;jettySize=auto;html=1;" parent="1" source="qWs5OM4v0zsxPJ6uN8vS-10" target="qWs5OM4v0zsxPJ6uN8vS-83" edge="1">
          <mxGeometry relative="1" as="geometry">
            <Array as="points">
              <mxPoint x="380" y="190" />
            </Array>
          </mxGeometry>
        </mxCell>
        <mxCell id="qWs5OM4v0zsxPJ6uN8vS-86" style="edgeStyle=orthogonalEdgeStyle;rounded=0;orthogonalLoop=1;jettySize=auto;html=1;entryX=0.5;entryY=0;entryDx=0;entryDy=0;" parent="1" source="qWs5OM4v0zsxPJ6uN8vS-10" target="qWs5OM4v0zsxPJ6uN8vS-78" edge="1">
          <mxGeometry relative="1" as="geometry" />
        </mxCell>
        <mxCell id="qWs5OM4v0zsxPJ6uN8vS-116" value="" style="edgeStyle=orthogonalEdgeStyle;rounded=0;orthogonalLoop=1;jettySize=auto;html=1;" parent="1" source="qWs5OM4v0zsxPJ6uN8vS-10" target="qWs5OM4v0zsxPJ6uN8vS-115" edge="1">
          <mxGeometry relative="1" as="geometry">
            <Array as="points">
              <mxPoint x="397" y="50" />
              <mxPoint x="450" y="50" />
            </Array>
          </mxGeometry>
        </mxCell>
        <mxCell id="qWs5OM4v0zsxPJ6uN8vS-10" value="location" style="whiteSpace=wrap;html=1;rounded=0;fillColor=#d5e8d4;strokeColor=#82b366;" parent="1" vertex="1">
          <mxGeometry x="370" y="15" width="55" height="20" as="geometry" />
        </mxCell>
        <mxCell id="qWs5OM4v0zsxPJ6uN8vS-16" value="&lt;li style=&quot;font-size: 8px;&quot;&gt;&lt;u style=&quot;font-size: 8px;&quot;&gt;id (PK)&lt;/u&gt;&lt;/li&gt;&lt;li style=&quot;font-size: 8px;&quot;&gt;street&lt;/li&gt;&lt;li style=&quot;font-size: 8px;&quot;&gt;city&lt;/li&gt;&lt;li style=&quot;font-size: 8px;&quot;&gt;state&lt;/li&gt;&lt;li style=&quot;font-size: 8px;&quot;&gt;zipCode&lt;/li&gt;&lt;li style=&quot;font-size: 8px;&quot;&gt;createdAt&lt;/li&gt;&lt;li style=&quot;font-size: 8px;&quot;&gt;updatedAt&lt;/li&gt;" style="ellipse;whiteSpace=wrap;html=1;rounded=0;fontSize=8;" parent="1" vertex="1">
          <mxGeometry x="-326.25" y="10" width="100" height="70" as="geometry" />
        </mxCell>
        <mxCell id="qWs5OM4v0zsxPJ6uN8vS-23" value="" style="edgeStyle=orthogonalEdgeStyle;rounded=0;orthogonalLoop=1;jettySize=auto;html=1;" parent="1" source="qWs5OM4v0zsxPJ6uN8vS-19" target="qWs5OM4v0zsxPJ6uN8vS-22" edge="1">
          <mxGeometry relative="1" as="geometry">
            <Array as="points">
              <mxPoint x="-210" y="70" />
              <mxPoint x="-210" y="90" />
              <mxPoint x="-280" y="90" />
            </Array>
          </mxGeometry>
        </mxCell>
        <mxCell id="qWs5OM4v0zsxPJ6uN8vS-19" value="identificationType" style="whiteSpace=wrap;html=1;rounded=0;fillColor=#d5e8d4;strokeColor=#82b366;" parent="1" vertex="1">
          <mxGeometry x="-130" y="60" width="100" height="20" as="geometry" />
        </mxCell>
        <mxCell id="qWs5OM4v0zsxPJ6uN8vS-22" value="&lt;br&gt;&lt;li&gt;&lt;u&gt;id (PK)&lt;/u&gt;&lt;/li&gt;&lt;li&gt;type&lt;/li&gt;&lt;li&gt;createdAt&lt;/li&gt;&lt;li&gt;updatedAt&lt;/li&gt;&lt;div&gt;&lt;br/&gt;&lt;/div&gt;" style="ellipse;whiteSpace=wrap;html=1;rounded=0;" parent="1" vertex="1">
          <mxGeometry x="-330" y="105" width="100" height="60" as="geometry" />
        </mxCell>
        <mxCell id="qWs5OM4v0zsxPJ6uN8vS-27" value="" style="edgeStyle=orthogonalEdgeStyle;rounded=0;orthogonalLoop=1;jettySize=auto;html=1;" parent="1" source="qWs5OM4v0zsxPJ6uN8vS-24" target="qWs5OM4v0zsxPJ6uN8vS-26" edge="1">
          <mxGeometry relative="1" as="geometry" />
        </mxCell>
        <mxCell id="qWs5OM4v0zsxPJ6uN8vS-36" value="" style="edgeStyle=orthogonalEdgeStyle;rounded=0;orthogonalLoop=1;jettySize=auto;html=1;" parent="1" source="qWs5OM4v0zsxPJ6uN8vS-24" target="qWs5OM4v0zsxPJ6uN8vS-26" edge="1">
          <mxGeometry relative="1" as="geometry" />
        </mxCell>
        <mxCell id="qWs5OM4v0zsxPJ6uN8vS-38" value="" style="edgeStyle=orthogonalEdgeStyle;rounded=0;orthogonalLoop=1;jettySize=auto;html=1;" parent="1" source="qWs5OM4v0zsxPJ6uN8vS-24" target="qWs5OM4v0zsxPJ6uN8vS-37" edge="1">
          <mxGeometry relative="1" as="geometry">
            <Array as="points">
              <mxPoint x="140" y="160" />
            </Array>
          </mxGeometry>
        </mxCell>
        <mxCell id="qWs5OM4v0zsxPJ6uN8vS-51" value="" style="edgeStyle=orthogonalEdgeStyle;rounded=0;orthogonalLoop=1;jettySize=auto;html=1;" parent="1" source="qWs5OM4v0zsxPJ6uN8vS-24" target="qWs5OM4v0zsxPJ6uN8vS-50" edge="1">
          <mxGeometry relative="1" as="geometry">
            <Array as="points">
              <mxPoint x="80" y="180" />
              <mxPoint x="125" y="180" />
            </Array>
          </mxGeometry>
        </mxCell>
        <mxCell id="qWs5OM4v0zsxPJ6uN8vS-53" value="" style="edgeStyle=orthogonalEdgeStyle;rounded=0;orthogonalLoop=1;jettySize=auto;html=1;" parent="1" source="qWs5OM4v0zsxPJ6uN8vS-24" target="qWs5OM4v0zsxPJ6uN8vS-52" edge="1">
          <mxGeometry relative="1" as="geometry" />
        </mxCell>
        <mxCell id="qWs5OM4v0zsxPJ6uN8vS-24" value="user" style="whiteSpace=wrap;html=1;rounded=0;fillColor=#d5e8d4;strokeColor=#82b366;" parent="1" vertex="1">
          <mxGeometry x="40" y="150" width="50" height="20" as="geometry" />
        </mxCell>
        <mxCell id="qWs5OM4v0zsxPJ6uN8vS-26" value="&lt;li style=&quot;font-size: 8px;&quot;&gt;&lt;u style=&quot;font-size: 8px;&quot;&gt;id (PK)&lt;/u&gt;&lt;/li&gt;&lt;li style=&quot;font-size: 8px;&quot;&gt;userName&lt;/li&gt;&lt;li style=&quot;font-size: 8px;&quot;&gt;password&lt;/li&gt;&lt;li style=&quot;font-size: 8px;&quot;&gt;createdAt&lt;/li&gt;&lt;li style=&quot;font-size: 8px;&quot;&gt;updatedAt&lt;/li&gt;" style="ellipse;whiteSpace=wrap;html=1;rounded=0;fontSize=8;" parent="1" vertex="1">
          <mxGeometry x="-60" y="165" width="80" height="50" as="geometry" />
        </mxCell>
        <mxCell id="qWs5OM4v0zsxPJ6uN8vS-35" value="" style="edgeStyle=orthogonalEdgeStyle;rounded=0;orthogonalLoop=1;jettySize=auto;html=1;exitX=0.5;exitY=1;exitDx=0;exitDy=0;" parent="1" source="qWs5OM4v0zsxPJ6uN8vS-32" target="qWs5OM4v0zsxPJ6uN8vS-24" edge="1">
          <mxGeometry relative="1" as="geometry">
            <Array as="points">
              <mxPoint x="65" y="125" />
            </Array>
          </mxGeometry>
        </mxCell>
        <mxCell id="qWs5OM4v0zsxPJ6uN8vS-32" value="crea" style="rhombus;whiteSpace=wrap;html=1;rounded=0;" parent="1" vertex="1">
          <mxGeometry x="70" y="85" width="45" height="40" as="geometry" />
        </mxCell>
        <mxCell id="qWs5OM4v0zsxPJ6uN8vS-40" value="" style="edgeStyle=orthogonalEdgeStyle;rounded=0;orthogonalLoop=1;jettySize=auto;html=1;" parent="1" source="qWs5OM4v0zsxPJ6uN8vS-37" target="qWs5OM4v0zsxPJ6uN8vS-39" edge="1">
          <mxGeometry relative="1" as="geometry" />
        </mxCell>
        <mxCell id="qWs5OM4v0zsxPJ6uN8vS-46" value="" style="edgeStyle=orthogonalEdgeStyle;rounded=0;orthogonalLoop=1;jettySize=auto;html=1;" parent="1" source="qWs5OM4v0zsxPJ6uN8vS-37" target="qWs5OM4v0zsxPJ6uN8vS-45" edge="1">
          <mxGeometry relative="1" as="geometry" />
        </mxCell>
        <mxCell id="qWs5OM4v0zsxPJ6uN8vS-37" value="userRoles" style="whiteSpace=wrap;html=1;rounded=0;fillColor=#d5e8d4;strokeColor=#82b366;" parent="1" vertex="1">
          <mxGeometry x="120" y="110" width="75" height="20" as="geometry" />
        </mxCell>
        <mxCell id="qWs5OM4v0zsxPJ6uN8vS-39" value="&lt;li style=&quot;font-size: 8px;&quot;&gt;&lt;u style=&quot;font-size: 8px;&quot;&gt;id (PK)&lt;/u&gt;&lt;/li&gt;&lt;li style=&quot;font-size: 8px;&quot;&gt;idUser (FK)&lt;/li&gt;&lt;li style=&quot;font-size: 8px;&quot;&gt;idRole (FK)&lt;/li&gt;&lt;li style=&quot;font-size: 8px;&quot;&gt;createdAt&lt;/li&gt;&lt;li style=&quot;font-size: 8px;&quot;&gt;updatedAt&lt;/li&gt;" style="ellipse;whiteSpace=wrap;html=1;rounded=0;fontSize=8;" parent="1" vertex="1">
          <mxGeometry x="120" y="38" width="77.5" height="50" as="geometry" />
        </mxCell>
        <mxCell id="qWs5OM4v0zsxPJ6uN8vS-41" value="&lt;li style=&quot;font-size: 8px;&quot;&gt;&lt;u style=&quot;font-size: 8px;&quot;&gt;id (PK)&lt;/u&gt;&lt;/li&gt;&lt;li style=&quot;font-size: 8px;&quot;&gt;idUser (FK)&lt;/li&gt;&lt;li style=&quot;font-size: 8px;&quot;&gt;idType (FK)&lt;/li&gt;&lt;li style=&quot;font-size: 8px;&quot;&gt;identificationNumber&lt;/li&gt;&lt;li style=&quot;font-size: 8px;&quot;&gt;firstName&lt;/li&gt;&lt;li style=&quot;font-size: 8px;&quot;&gt;middleName&lt;/li&gt;&lt;li style=&quot;font-size: 8px;&quot;&gt;lastName&lt;/li&gt;&lt;li style=&quot;font-size: 8px;&quot;&gt;email&lt;/li&gt;&lt;li style=&quot;font-size: 8px;&quot;&gt;phone&lt;/li&gt;&lt;li style=&quot;font-size: 8px;&quot;&gt;idAddress (FK)&lt;/li&gt;&lt;li style=&quot;font-size: 8px;&quot;&gt;createdAt&lt;/li&gt;&lt;li style=&quot;font-size: 8px;&quot;&gt;updatedAt&lt;/li&gt;" style="ellipse;whiteSpace=wrap;html=1;rounded=0;strokeWidth=1;fontSize=8;" parent="1" vertex="1">
          <mxGeometry x="-220" y="95" width="172.5" height="110" as="geometry" />
        </mxCell>
        <mxCell id="qWs5OM4v0zsxPJ6uN8vS-48" value="" style="edgeStyle=orthogonalEdgeStyle;rounded=0;orthogonalLoop=1;jettySize=auto;html=1;" parent="1" source="qWs5OM4v0zsxPJ6uN8vS-45" target="qWs5OM4v0zsxPJ6uN8vS-47" edge="1">
          <mxGeometry relative="1" as="geometry">
            <Array as="points">
              <mxPoint x="245" y="55" />
            </Array>
          </mxGeometry>
        </mxCell>
        <mxCell id="qWs5OM4v0zsxPJ6uN8vS-45" value="roles" style="whiteSpace=wrap;html=1;rounded=0;fillColor=#d5e8d4;strokeColor=#82b366;" parent="1" vertex="1">
          <mxGeometry x="207.5" y="75" width="75" height="20" as="geometry" />
        </mxCell>
        <mxCell id="qWs5OM4v0zsxPJ6uN8vS-47" value="&lt;li style=&quot;font-size: 8px;&quot;&gt;id (PK)&lt;/li&gt;&lt;li style=&quot;font-size: 8px;&quot;&gt;roleName&lt;/li&gt;&lt;li style=&quot;font-size: 8px;&quot;&gt;createdAt&lt;/li&gt;&lt;li style=&quot;font-size: 8px;&quot;&gt;updatedAt&lt;/li&gt;" style="ellipse;whiteSpace=wrap;html=1;rounded=0;fontSize=8;" parent="1" vertex="1">
          <mxGeometry x="280" y="30" width="77.5" height="55" as="geometry" />
        </mxCell>
        <mxCell id="qWs5OM4v0zsxPJ6uN8vS-67" value="" style="edgeStyle=orthogonalEdgeStyle;rounded=0;orthogonalLoop=1;jettySize=auto;html=1;" parent="1" source="qWs5OM4v0zsxPJ6uN8vS-50" target="qWs5OM4v0zsxPJ6uN8vS-66" edge="1">
          <mxGeometry relative="1" as="geometry" />
        </mxCell>
        <mxCell id="qWs5OM4v0zsxPJ6uN8vS-73" value="" style="edgeStyle=orthogonalEdgeStyle;rounded=0;orthogonalLoop=1;jettySize=auto;html=1;" parent="1" source="qWs5OM4v0zsxPJ6uN8vS-50" target="qWs5OM4v0zsxPJ6uN8vS-72" edge="1">
          <mxGeometry relative="1" as="geometry" />
        </mxCell>
        <mxCell id="qWs5OM4v0zsxPJ6uN8vS-108" value="" style="edgeStyle=orthogonalEdgeStyle;rounded=0;orthogonalLoop=1;jettySize=auto;html=1;" parent="1" source="qWs5OM4v0zsxPJ6uN8vS-50" target="qWs5OM4v0zsxPJ6uN8vS-107" edge="1">
          <mxGeometry relative="1" as="geometry">
            <Array as="points">
              <mxPoint x="47" y="270" />
            </Array>
          </mxGeometry>
        </mxCell>
        <mxCell id="qWs5OM4v0zsxPJ6uN8vS-50" value="invoices" style="whiteSpace=wrap;html=1;rounded=0;fillColor=#d5e8d4;strokeColor=#82b366;" parent="1" vertex="1">
          <mxGeometry x="100" y="260" width="50" height="20" as="geometry" />
        </mxCell>
        <mxCell id="qWs5OM4v0zsxPJ6uN8vS-56" value="" style="edgeStyle=orthogonalEdgeStyle;rounded=0;orthogonalLoop=1;jettySize=auto;html=1;" parent="1" source="qWs5OM4v0zsxPJ6uN8vS-52" target="qWs5OM4v0zsxPJ6uN8vS-55" edge="1">
          <mxGeometry relative="1" as="geometry">
            <Array as="points">
              <mxPoint x="-20" y="280" />
              <mxPoint x="-120" y="280" />
            </Array>
          </mxGeometry>
        </mxCell>
        <mxCell id="qWs5OM4v0zsxPJ6uN8vS-58" value="" style="edgeStyle=orthogonalEdgeStyle;rounded=0;orthogonalLoop=1;jettySize=auto;html=1;" parent="1" source="qWs5OM4v0zsxPJ6uN8vS-52" target="qWs5OM4v0zsxPJ6uN8vS-57" edge="1">
          <mxGeometry relative="1" as="geometry">
            <Array as="points">
              <mxPoint y="315" />
              <mxPoint x="-60" y="315" />
            </Array>
          </mxGeometry>
        </mxCell>
        <mxCell id="qWs5OM4v0zsxPJ6uN8vS-95" value="" style="edgeStyle=orthogonalEdgeStyle;rounded=0;orthogonalLoop=1;jettySize=auto;html=1;" parent="1" source="qWs5OM4v0zsxPJ6uN8vS-52" target="qWs5OM4v0zsxPJ6uN8vS-94" edge="1">
          <mxGeometry relative="1" as="geometry" />
        </mxCell>
        <mxCell id="qWs5OM4v0zsxPJ6uN8vS-52" value="purchaseOrders" style="whiteSpace=wrap;html=1;rounded=0;fillColor=#d5e8d4;strokeColor=#82b366;" parent="1" vertex="1">
          <mxGeometry x="-30" y="240" width="100" height="20" as="geometry" />
        </mxCell>
        <mxCell id="qWs5OM4v0zsxPJ6uN8vS-93" value="" style="edgeStyle=orthogonalEdgeStyle;rounded=0;orthogonalLoop=1;jettySize=auto;html=1;" parent="1" source="qWs5OM4v0zsxPJ6uN8vS-55" target="qWs5OM4v0zsxPJ6uN8vS-92" edge="1">
          <mxGeometry relative="1" as="geometry">
            <Array as="points">
              <mxPoint x="-159" y="300" />
            </Array>
          </mxGeometry>
        </mxCell>
        <mxCell id="qWs5OM4v0zsxPJ6uN8vS-55" value="orderStatus" style="whiteSpace=wrap;html=1;rounded=0;fillColor=#d5e8d4;strokeColor=#82b366;" parent="1" vertex="1">
          <mxGeometry x="-203.75" y="265" width="90" height="20" as="geometry" />
        </mxCell>
        <mxCell id="qWs5OM4v0zsxPJ6uN8vS-60" value="" style="edgeStyle=orthogonalEdgeStyle;rounded=0;orthogonalLoop=1;jettySize=auto;html=1;" parent="1" source="qWs5OM4v0zsxPJ6uN8vS-57" target="qWs5OM4v0zsxPJ6uN8vS-59" edge="1">
          <mxGeometry relative="1" as="geometry" />
        </mxCell>
        <mxCell id="qWs5OM4v0zsxPJ6uN8vS-102" value="" style="edgeStyle=orthogonalEdgeStyle;rounded=0;orthogonalLoop=1;jettySize=auto;html=1;" parent="1" source="qWs5OM4v0zsxPJ6uN8vS-57" target="qWs5OM4v0zsxPJ6uN8vS-101" edge="1">
          <mxGeometry relative="1" as="geometry" />
        </mxCell>
        <mxCell id="qWs5OM4v0zsxPJ6uN8vS-57" value="orderDetails" style="whiteSpace=wrap;html=1;rounded=0;fillColor=#d5e8d4;strokeColor=#82b366;" parent="1" vertex="1">
          <mxGeometry x="-100" y="320" width="80" height="20" as="geometry" />
        </mxCell>
        <mxCell id="qWs5OM4v0zsxPJ6uN8vS-62" value="" style="edgeStyle=orthogonalEdgeStyle;rounded=0;orthogonalLoop=1;jettySize=auto;html=1;" parent="1" source="qWs5OM4v0zsxPJ6uN8vS-59" target="qWs5OM4v0zsxPJ6uN8vS-61" edge="1">
          <mxGeometry relative="1" as="geometry">
            <Array as="points">
              <mxPoint x="-100" y="430" />
              <mxPoint x="-147" y="430" />
            </Array>
          </mxGeometry>
        </mxCell>
        <mxCell id="qWs5OM4v0zsxPJ6uN8vS-64" value="" style="edgeStyle=orthogonalEdgeStyle;rounded=0;orthogonalLoop=1;jettySize=auto;html=1;" parent="1" source="qWs5OM4v0zsxPJ6uN8vS-59" target="qWs5OM4v0zsxPJ6uN8vS-63" edge="1">
          <mxGeometry relative="1" as="geometry">
            <Array as="points">
              <mxPoint x="-73" y="450" />
              <mxPoint y="450" />
            </Array>
          </mxGeometry>
        </mxCell>
        <mxCell id="qWs5OM4v0zsxPJ6uN8vS-99" value="" style="edgeStyle=orthogonalEdgeStyle;rounded=0;orthogonalLoop=1;jettySize=auto;html=1;" parent="1" source="qWs5OM4v0zsxPJ6uN8vS-59" target="qWs5OM4v0zsxPJ6uN8vS-98" edge="1">
          <mxGeometry relative="1" as="geometry">
            <Array as="points">
              <mxPoint x="-180" y="380" />
              <mxPoint x="-180" y="435" />
            </Array>
          </mxGeometry>
        </mxCell>
        <mxCell id="qWs5OM4v0zsxPJ6uN8vS-59" value="products" style="whiteSpace=wrap;html=1;rounded=0;fillColor=#d5e8d4;strokeColor=#82b366;" parent="1" vertex="1">
          <mxGeometry x="-107.5" y="370" width="70" height="20" as="geometry" />
        </mxCell>
        <mxCell id="qWs5OM4v0zsxPJ6uN8vS-97" value="" style="edgeStyle=orthogonalEdgeStyle;rounded=0;orthogonalLoop=1;jettySize=auto;html=1;" parent="1" source="qWs5OM4v0zsxPJ6uN8vS-61" target="qWs5OM4v0zsxPJ6uN8vS-96" edge="1">
          <mxGeometry relative="1" as="geometry" />
        </mxCell>
        <mxCell id="qWs5OM4v0zsxPJ6uN8vS-61" value="productsCategories" style="whiteSpace=wrap;html=1;rounded=0;fillColor=#d5e8d4;strokeColor=#82b366;" parent="1" vertex="1">
          <mxGeometry x="-202.5" y="470" width="110" height="30" as="geometry" />
        </mxCell>
        <mxCell id="qWs5OM4v0zsxPJ6uN8vS-104" value="" style="edgeStyle=orthogonalEdgeStyle;rounded=0;orthogonalLoop=1;jettySize=auto;html=1;" parent="1" source="qWs5OM4v0zsxPJ6uN8vS-63" target="qWs5OM4v0zsxPJ6uN8vS-103" edge="1">
          <mxGeometry relative="1" as="geometry" />
        </mxCell>
        <mxCell id="qWs5OM4v0zsxPJ6uN8vS-63" value="historyProductPrices" style="whiteSpace=wrap;html=1;rounded=0;fillColor=#d5e8d4;strokeColor=#82b366;" parent="1" vertex="1">
          <mxGeometry x="-70" y="470" width="120" height="30" as="geometry" />
        </mxCell>
        <mxCell id="qWs5OM4v0zsxPJ6uN8vS-70" style="edgeStyle=orthogonalEdgeStyle;rounded=0;orthogonalLoop=1;jettySize=auto;html=1;entryX=1;entryY=0.25;entryDx=0;entryDy=0;" parent="1" source="qWs5OM4v0zsxPJ6uN8vS-66" target="qWs5OM4v0zsxPJ6uN8vS-59" edge="1">
          <mxGeometry relative="1" as="geometry" />
        </mxCell>
        <mxCell id="qWs5OM4v0zsxPJ6uN8vS-110" value="" style="edgeStyle=orthogonalEdgeStyle;rounded=0;orthogonalLoop=1;jettySize=auto;html=1;" parent="1" source="qWs5OM4v0zsxPJ6uN8vS-66" target="qWs5OM4v0zsxPJ6uN8vS-109" edge="1">
          <mxGeometry relative="1" as="geometry">
            <Array as="points">
              <mxPoint x="200" y="365" />
              <mxPoint x="200" y="490" />
            </Array>
          </mxGeometry>
        </mxCell>
        <mxCell id="qWs5OM4v0zsxPJ6uN8vS-66" value="invoicesDetails" style="whiteSpace=wrap;html=1;rounded=0;fillColor=#d5e8d4;strokeColor=#82b366;" parent="1" vertex="1">
          <mxGeometry x="80" y="340" width="90" height="20" as="geometry" />
        </mxCell>
        <mxCell id="qWs5OM4v0zsxPJ6uN8vS-75" value="" style="edgeStyle=orthogonalEdgeStyle;rounded=0;orthogonalLoop=1;jettySize=auto;html=1;" parent="1" source="qWs5OM4v0zsxPJ6uN8vS-72" target="qWs5OM4v0zsxPJ6uN8vS-74" edge="1">
          <mxGeometry relative="1" as="geometry" />
        </mxCell>
        <mxCell id="qWs5OM4v0zsxPJ6uN8vS-82" style="edgeStyle=orthogonalEdgeStyle;rounded=0;orthogonalLoop=1;jettySize=auto;html=1;entryX=0;entryY=0.75;entryDx=0;entryDy=0;" parent="1" source="qWs5OM4v0zsxPJ6uN8vS-72" target="qWs5OM4v0zsxPJ6uN8vS-78" edge="1">
          <mxGeometry relative="1" as="geometry" />
        </mxCell>
        <mxCell id="qWs5OM4v0zsxPJ6uN8vS-72" value="payments" style="whiteSpace=wrap;html=1;rounded=0;fillColor=#d5e8d4;strokeColor=#82b366;" parent="1" vertex="1">
          <mxGeometry x="330" y="255" width="70" height="30" as="geometry" />
        </mxCell>
        <mxCell id="qWs5OM4v0zsxPJ6uN8vS-77" value="" style="edgeStyle=orthogonalEdgeStyle;rounded=0;orthogonalLoop=1;jettySize=auto;html=1;" parent="1" source="qWs5OM4v0zsxPJ6uN8vS-74" target="qWs5OM4v0zsxPJ6uN8vS-76" edge="1">
          <mxGeometry relative="1" as="geometry">
            <Array as="points">
              <mxPoint x="600" y="350" />
            </Array>
          </mxGeometry>
        </mxCell>
        <mxCell id="qWs5OM4v0zsxPJ6uN8vS-112" value="" style="edgeStyle=orthogonalEdgeStyle;rounded=0;orthogonalLoop=1;jettySize=auto;html=1;" parent="1" source="qWs5OM4v0zsxPJ6uN8vS-74" target="qWs5OM4v0zsxPJ6uN8vS-111" edge="1">
          <mxGeometry relative="1" as="geometry" />
        </mxCell>
        <mxCell id="qWs5OM4v0zsxPJ6uN8vS-74" value="paymentsMethods" style="whiteSpace=wrap;html=1;rounded=0;fillColor=#d5e8d4;strokeColor=#82b366;" parent="1" vertex="1">
          <mxGeometry x="232.5" y="330" width="120" height="40" as="geometry" />
        </mxCell>
        <mxCell id="qWs5OM4v0zsxPJ6uN8vS-79" value="" style="edgeStyle=orthogonalEdgeStyle;rounded=0;orthogonalLoop=1;jettySize=auto;html=1;" parent="1" source="qWs5OM4v0zsxPJ6uN8vS-76" target="qWs5OM4v0zsxPJ6uN8vS-78" edge="1">
          <mxGeometry relative="1" as="geometry" />
        </mxCell>
        <mxCell id="qWs5OM4v0zsxPJ6uN8vS-118" value="" style="edgeStyle=orthogonalEdgeStyle;rounded=0;orthogonalLoop=1;jettySize=auto;html=1;" parent="1" source="qWs5OM4v0zsxPJ6uN8vS-76" target="qWs5OM4v0zsxPJ6uN8vS-117" edge="1">
          <mxGeometry relative="1" as="geometry" />
        </mxCell>
        <mxCell id="qWs5OM4v0zsxPJ6uN8vS-76" value="paymentsGateways" style="whiteSpace=wrap;html=1;rounded=0;fillColor=#d5e8d4;strokeColor=#82b366;" parent="1" vertex="1">
          <mxGeometry x="585" y="380" width="120" height="40" as="geometry" />
        </mxCell>
        <mxCell id="qWs5OM4v0zsxPJ6uN8vS-88" value="" style="edgeStyle=orthogonalEdgeStyle;rounded=0;orthogonalLoop=1;jettySize=auto;html=1;" parent="1" source="qWs5OM4v0zsxPJ6uN8vS-78" target="qWs5OM4v0zsxPJ6uN8vS-87" edge="1">
          <mxGeometry relative="1" as="geometry" />
        </mxCell>
        <mxCell id="qWs5OM4v0zsxPJ6uN8vS-120" value="" style="edgeStyle=orthogonalEdgeStyle;rounded=0;orthogonalLoop=1;jettySize=auto;html=1;" parent="1" source="qWs5OM4v0zsxPJ6uN8vS-78" target="qWs5OM4v0zsxPJ6uN8vS-119" edge="1">
          <mxGeometry relative="1" as="geometry">
            <Array as="points">
              <mxPoint x="580" y="210" />
              <mxPoint x="635" y="210" />
            </Array>
          </mxGeometry>
        </mxCell>
        <mxCell id="qWs5OM4v0zsxPJ6uN8vS-78" value="paymentsGatewaysLocation" style="whiteSpace=wrap;html=1;rounded=0;fillColor=#d5e8d4;strokeColor=#82b366;" parent="1" vertex="1">
          <mxGeometry x="440" y="240" width="160" height="40" as="geometry" />
        </mxCell>
        <mxCell id="qWs5OM4v0zsxPJ6uN8vS-85" style="edgeStyle=orthogonalEdgeStyle;rounded=0;orthogonalLoop=1;jettySize=auto;html=1;entryX=1;entryY=0.5;entryDx=0;entryDy=0;" parent="1" source="qWs5OM4v0zsxPJ6uN8vS-83" target="qWs5OM4v0zsxPJ6uN8vS-59" edge="1">
          <mxGeometry relative="1" as="geometry">
            <Array as="points">
              <mxPoint x="190" y="220" />
              <mxPoint x="190" y="380" />
            </Array>
          </mxGeometry>
        </mxCell>
        <mxCell id="qWs5OM4v0zsxPJ6uN8vS-126" style="edgeStyle=orthogonalEdgeStyle;rounded=0;orthogonalLoop=1;jettySize=auto;html=1;exitX=0.25;exitY=0;exitDx=0;exitDy=0;" parent="1" source="qWs5OM4v0zsxPJ6uN8vS-83" target="qWs5OM4v0zsxPJ6uN8vS-125" edge="1">
          <mxGeometry relative="1" as="geometry">
            <Array as="points">
              <mxPoint x="230" y="180" />
              <mxPoint x="310" y="180" />
            </Array>
          </mxGeometry>
        </mxCell>
        <mxCell id="qWs5OM4v0zsxPJ6uN8vS-83" value="locationProduct" style="whiteSpace=wrap;html=1;rounded=0;fillColor=#d5e8d4;strokeColor=#82b366;" parent="1" vertex="1">
          <mxGeometry x="207.5" y="210" width="90" height="20" as="geometry" />
        </mxCell>
        <mxCell id="qWs5OM4v0zsxPJ6uN8vS-90" value="" style="edgeStyle=orthogonalEdgeStyle;rounded=0;orthogonalLoop=1;jettySize=auto;html=1;" parent="1" source="qWs5OM4v0zsxPJ6uN8vS-87" target="qWs5OM4v0zsxPJ6uN8vS-89" edge="1">
          <mxGeometry relative="1" as="geometry" />
        </mxCell>
        <mxCell id="qWs5OM4v0zsxPJ6uN8vS-128" value="" style="edgeStyle=orthogonalEdgeStyle;rounded=0;orthogonalLoop=1;jettySize=auto;html=1;" parent="1" source="qWs5OM4v0zsxPJ6uN8vS-87" target="qWs5OM4v0zsxPJ6uN8vS-127" edge="1">
          <mxGeometry relative="1" as="geometry" />
        </mxCell>
        <mxCell id="qWs5OM4v0zsxPJ6uN8vS-87" value="paymentsGatewaysLocationParameter" style="whiteSpace=wrap;html=1;rounded=0;fillColor=#d5e8d4;strokeColor=#82b366;" parent="1" vertex="1">
          <mxGeometry x="640" y="280" width="210" height="30" as="geometry" />
        </mxCell>
        <mxCell id="qWs5OM4v0zsxPJ6uN8vS-130" value="" style="edgeStyle=orthogonalEdgeStyle;rounded=0;orthogonalLoop=1;jettySize=auto;html=1;" parent="1" source="qWs5OM4v0zsxPJ6uN8vS-89" target="qWs5OM4v0zsxPJ6uN8vS-129" edge="1">
          <mxGeometry relative="1" as="geometry" />
        </mxCell>
        <mxCell id="qWs5OM4v0zsxPJ6uN8vS-89" value="parameter" style="whiteSpace=wrap;html=1;rounded=0;fillColor=#d5e8d4;strokeColor=#82b366;" parent="1" vertex="1">
          <mxGeometry x="695" y="350" width="100" height="20" as="geometry" />
        </mxCell>
        <mxCell id="qWs5OM4v0zsxPJ6uN8vS-92" value="&lt;li style=&quot;font-size: 8px;&quot;&gt;&lt;u&gt;id (PK)&lt;/u&gt;&lt;/li&gt;&lt;li style=&quot;font-size: 8px;&quot;&gt;name&lt;/li&gt;&lt;li style=&quot;font-size: 8px;&quot;&gt;createdAt&lt;/li&gt;&lt;li style=&quot;font-size: 8px;&quot;&gt;updatedAt&lt;/li&gt;" style="ellipse;whiteSpace=wrap;html=1;rounded=0;fontSize=8;" parent="1" vertex="1">
          <mxGeometry x="-326.25" y="263" width="96.25" height="60" as="geometry" />
        </mxCell>
        <mxCell id="qWs5OM4v0zsxPJ6uN8vS-94" value="&lt;li&gt;&lt;u&gt;id (PK)&lt;/u&gt;&lt;/li&gt;&lt;li&gt;idSupplier (FK)&lt;/li&gt;&lt;li&gt;idStatus (FK)&lt;/li&gt;&lt;li&gt;createdAt&lt;/li&gt;&lt;li&gt;updatedAt&lt;/li&gt;" style="ellipse;whiteSpace=wrap;html=1;rounded=0;" parent="1" vertex="1">
          <mxGeometry x="-326.25" y="180" width="140" height="80" as="geometry" />
        </mxCell>
        <mxCell id="qWs5OM4v0zsxPJ6uN8vS-96" value="&lt;li&gt;&lt;u&gt;id (PK)&lt;/u&gt;&lt;/li&gt;&lt;li&gt;categoryName&lt;/li&gt;&lt;li&gt;description&lt;/li&gt;&lt;li&gt;createdAt&lt;/li&gt;&lt;li&gt;updatedAt&lt;/li&gt;" style="ellipse;whiteSpace=wrap;html=1;rounded=0;fontSize=8;" parent="1" vertex="1">
          <mxGeometry x="-342.5" y="477" width="102.5" height="55" as="geometry" />
        </mxCell>
        <mxCell id="qWs5OM4v0zsxPJ6uN8vS-98" value="&lt;li&gt;&lt;u&gt;id (PK)&lt;/u&gt;&lt;/li&gt;&lt;li&gt;name&lt;/li&gt;&lt;li&gt;description&lt;/li&gt;&lt;li&gt;price&lt;/li&gt;&lt;li&gt;idCategory (FK)&lt;/li&gt;&lt;li&gt;createdAt&lt;/li&gt;&lt;li&gt;updatedAt&lt;/li&gt;" style="ellipse;whiteSpace=wrap;html=1;rounded=0;fontSize=8;" parent="1" vertex="1">
          <mxGeometry x="-325" y="400" width="115" height="70" as="geometry" />
        </mxCell>
        <mxCell id="qWs5OM4v0zsxPJ6uN8vS-101" value="&lt;li style=&quot;font-size: 8px;&quot;&gt;&lt;u&gt;id (PK)&lt;/u&gt;&lt;/li&gt;&lt;li style=&quot;font-size: 8px;&quot;&gt;idPurchaseOrder (FK)&lt;/li&gt;&lt;li style=&quot;font-size: 8px;&quot;&gt;idProduct (FK)&lt;/li&gt;&lt;li style=&quot;font-size: 8px;&quot;&gt;quantity&lt;/li&gt;&lt;li style=&quot;font-size: 8px;&quot;&gt;price&lt;/li&gt;&lt;li style=&quot;font-size: 8px;&quot;&gt;createdAt&lt;/li&gt;&lt;li style=&quot;font-size: 8px;&quot;&gt;updatedAt&lt;/li&gt;" style="ellipse;whiteSpace=wrap;html=1;rounded=0;fontSize=8;" parent="1" vertex="1">
          <mxGeometry x="-313" y="325" width="110" height="70" as="geometry" />
        </mxCell>
        <mxCell id="qWs5OM4v0zsxPJ6uN8vS-103" value="&lt;li style=&quot;font-size: 8px;&quot;&gt;&lt;u&gt;id (PK)&lt;/u&gt;&lt;/li&gt;&lt;li style=&quot;font-size: 8px;&quot;&gt;idProduct (FK)&lt;/li&gt;&lt;li style=&quot;font-size: 8px;&quot;&gt;price&lt;/li&gt;&lt;li style=&quot;font-size: 8px;&quot;&gt;createdAt&lt;/li&gt;&lt;li style=&quot;font-size: 8px;&quot;&gt;updatedAt&lt;/li&gt;" style="ellipse;whiteSpace=wrap;html=1;rounded=0;fontSize=8;" parent="1" vertex="1">
          <mxGeometry x="52.5" y="400" width="107.5" height="60" as="geometry" />
        </mxCell>
        <mxCell id="qWs5OM4v0zsxPJ6uN8vS-107" value="&lt;li style=&quot;font-size: 8px;&quot;&gt;&lt;u&gt;id (PK)&lt;/u&gt;&lt;/li&gt;&lt;li style=&quot;font-size: 8px;&quot;&gt;idUser (FK)&lt;/li&gt;&lt;li style=&quot;font-size: 8px;&quot;&gt;total&lt;/li&gt;&lt;li style=&quot;font-size: 8px;&quot;&gt;createdAt&lt;/li&gt;&lt;li style=&quot;font-size: 8px;&quot;&gt;updatedAt&lt;/li&gt;" style="ellipse;whiteSpace=wrap;html=1;fontSize=8;" parent="1" vertex="1">
          <mxGeometry x="5" y="285" width="85" height="50" as="geometry" />
        </mxCell>
        <mxCell id="qWs5OM4v0zsxPJ6uN8vS-109" value="&lt;li style=&quot;font-size: 8px;&quot;&gt;&lt;u style=&quot;font-size: 8px;&quot;&gt;id (PK)&lt;/u&gt;&lt;/li&gt;&lt;li style=&quot;font-size: 8px;&quot;&gt;idInvoice (FK)&lt;/li&gt;&lt;li style=&quot;font-size: 8px;&quot;&gt;idProduct (FK)&lt;/li&gt;&lt;li style=&quot;font-size: 8px;&quot;&gt;quantity&lt;/li&gt;&lt;li style=&quot;font-size: 8px;&quot;&gt;createdAt&lt;/li&gt;&lt;li style=&quot;font-size: 8px;&quot;&gt;updatedAt&lt;/li&gt;" style="ellipse;whiteSpace=wrap;html=1;rounded=0;fontSize=8;" parent="1" vertex="1">
          <mxGeometry x="150" y="454" width="110" height="66" as="geometry" />
        </mxCell>
        <mxCell id="qWs5OM4v0zsxPJ6uN8vS-111" value="&lt;li style=&quot;font-size: 8px;&quot;&gt;id (PK)&lt;/li&gt;&lt;li style=&quot;font-size: 8px;&quot;&gt;methodName&lt;/li&gt;&lt;li style=&quot;font-size: 8px;&quot;&gt;createdAt&lt;/li&gt;&lt;li style=&quot;font-size: 8px;&quot;&gt;updatedAt&lt;/li&gt;" style="ellipse;whiteSpace=wrap;html=1;rounded=0;fontSize=8;" parent="1" vertex="1">
          <mxGeometry x="252.5" y="390" width="80" height="50" as="geometry" />
        </mxCell>
        <mxCell id="qWs5OM4v0zsxPJ6uN8vS-115" value="&lt;li style=&quot;font-size: 8px;&quot;&gt;&lt;u style=&quot;font-size: 8px;&quot;&gt;id (PK)&lt;/u&gt;&lt;/li&gt;&lt;li style=&quot;font-size: 8px;&quot;&gt;locationName&lt;/li&gt;&lt;li style=&quot;font-size: 8px;&quot;&gt;idAddress (FK)&lt;/li&gt;&lt;li style=&quot;font-size: 8px;&quot;&gt;phone&lt;/li&gt;&lt;li style=&quot;font-size: 8px;&quot;&gt;email&lt;/li&gt;&lt;li style=&quot;font-size: 8px;&quot;&gt;createdAt&lt;/li&gt;&lt;li style=&quot;font-size: 8px;&quot;&gt;updatedAt&lt;/li&gt;" style="ellipse;whiteSpace=wrap;html=1;rounded=0;fontSize=8;" parent="1" vertex="1">
          <mxGeometry x="390" y="85" width="100" height="70" as="geometry" />
        </mxCell>
        <mxCell id="qWs5OM4v0zsxPJ6uN8vS-117" value="&lt;li style=&quot;font-size: 8px;&quot;&gt;&lt;u style=&quot;font-size: 8px;&quot;&gt;id (PK)&lt;/u&gt;&lt;/li&gt;&lt;li style=&quot;font-size: 8px;&quot;&gt;idPaymentMethod (FK)&lt;/li&gt;&lt;li style=&quot;font-size: 8px;&quot;&gt;gateway&lt;/li&gt;&lt;li style=&quot;font-size: 8px;&quot;&gt;createdAt&lt;/li&gt;&lt;li style=&quot;font-size: 8px;&quot;&gt;updatedAt&lt;/li&gt;" style="ellipse;whiteSpace=wrap;html=1;rounded=0;fontSize=8;" parent="1" vertex="1">
          <mxGeometry x="570" y="460" width="110" height="60" as="geometry" />
        </mxCell>
        <mxCell id="qWs5OM4v0zsxPJ6uN8vS-119" value="&lt;li style=&quot;font-size: 8px;&quot;&gt;&lt;u style=&quot;font-size: 8px;&quot;&gt;id (PK)&lt;/u&gt;&lt;/li&gt;&lt;li style=&quot;font-size: 8px;&quot;&gt;idLocation (FK)&lt;/li&gt;&lt;li style=&quot;font-size: 8px;&quot;&gt;idPaymentGateway (FK)&lt;/li&gt;&lt;li style=&quot;font-size: 8px;&quot;&gt;createdAt&lt;/li&gt;&lt;li style=&quot;font-size: 8px;&quot;&gt;updatedAt&lt;/li&gt;" style="ellipse;whiteSpace=wrap;html=1;rounded=0;fontSize=8;" parent="1" vertex="1">
          <mxGeometry x="585" y="55" width="100" height="70" as="geometry" />
        </mxCell>
        <mxCell id="qWs5OM4v0zsxPJ6uN8vS-122" value="&lt;li style=&quot;font-size: 8px;&quot;&gt;&lt;u style=&quot;font-size: 8px;&quot;&gt;id (PK)&lt;/u&gt;&lt;/li&gt;&lt;li style=&quot;font-size: 8px;&quot;&gt;idInvoice (FK)&lt;/li&gt;&lt;li style=&quot;font-size: 8px;&quot;&gt;amount&lt;/li&gt;&lt;li style=&quot;font-size: 8px;&quot;&gt;idPaymentMethod (FK)&lt;/li&gt;&lt;li style=&quot;font-size: 8px;&quot;&gt;paymentDate&lt;/li&gt;&lt;li style=&quot;font-size: 8px;&quot;&gt;status&lt;/li&gt;&lt;li style=&quot;font-size: 8px;&quot;&gt;idPaymentGatewaysLocation (FK)&lt;/li&gt;&lt;li style=&quot;font-size: 8px;&quot;&gt;createdAt&lt;/li&gt;&lt;li style=&quot;font-size: 8px;&quot;&gt;updatedAt&lt;/li&gt;" style="ellipse;whiteSpace=wrap;html=1;fontSize=8;" parent="1" vertex="1">
          <mxGeometry x="370" y="377" width="190" height="100" as="geometry" />
        </mxCell>
        <mxCell id="qWs5OM4v0zsxPJ6uN8vS-123" style="edgeStyle=orthogonalEdgeStyle;rounded=0;orthogonalLoop=1;jettySize=auto;html=1;entryX=0.5;entryY=0;entryDx=0;entryDy=0;" parent="1" source="qWs5OM4v0zsxPJ6uN8vS-72" target="qWs5OM4v0zsxPJ6uN8vS-122" edge="1">
          <mxGeometry relative="1" as="geometry">
            <mxPoint x="390" y="399" as="targetPoint" />
            <Array as="points">
              <mxPoint x="390" y="320" />
              <mxPoint x="465" y="320" />
            </Array>
          </mxGeometry>
        </mxCell>
        <mxCell id="qWs5OM4v0zsxPJ6uN8vS-125" value="&lt;li style=&quot;font-size: 8px;&quot;&gt;&lt;u style=&quot;font-size: 8px;&quot;&gt;id (PK)&lt;/u&gt;&lt;/li&gt;&lt;li style=&quot;font-size: 8px;&quot;&gt;idProduct (FK)&lt;/li&gt;&lt;li style=&quot;font-size: 8px;&quot;&gt;idLocation (FK)&lt;/li&gt;&lt;li style=&quot;font-size: 8px;&quot;&gt;createdAt&lt;/li&gt;&lt;li style=&quot;font-size: 8px;&quot;&gt;updatedAt&lt;/li&gt;" style="ellipse;whiteSpace=wrap;html=1;fontSize=8;" parent="1" vertex="1">
          <mxGeometry x="242.5" y="120" width="100" height="45" as="geometry" />
        </mxCell>
        <mxCell id="qWs5OM4v0zsxPJ6uN8vS-127" value="&lt;li style=&quot;font-size: 8px;&quot;&gt;i&lt;u&gt;d (PK)&lt;/u&gt;&lt;/li&gt;&lt;li style=&quot;font-size: 8px;&quot;&gt;idParameter (FK)&lt;/li&gt;&lt;li style=&quot;font-size: 8px;&quot;&gt;idPaymentGatewayLocation (FK)&lt;/li&gt;&lt;li style=&quot;font-size: 8px;&quot;&gt;value&lt;/li&gt;&lt;li style=&quot;font-size: 8px;&quot;&gt;createdAt&lt;/li&gt;&lt;li style=&quot;font-size: 8px;&quot;&gt;updatedAt&lt;/li&gt;" style="ellipse;whiteSpace=wrap;html=1;rounded=0;fontSize=8;" parent="1" vertex="1">
          <mxGeometry x="720" y="135" width="120" height="75" as="geometry" />
        </mxCell>
        <mxCell id="qWs5OM4v0zsxPJ6uN8vS-129" value="&lt;li style=&quot;font-size: 8px;&quot;&gt;&lt;u style=&quot;font-size: 8px;&quot;&gt;id (PK)&lt;/u&gt;&lt;/li&gt;&lt;li style=&quot;font-size: 8px;&quot;&gt;code&lt;/li&gt;&lt;li style=&quot;font-size: 8px;&quot;&gt;description&lt;/li&gt;&lt;li style=&quot;font-size: 8px;&quot;&gt;createdAt&lt;/li&gt;&lt;li style=&quot;font-size: 8px;&quot;&gt;updatedAt&lt;/li&gt;" style="ellipse;whiteSpace=wrap;html=1;rounded=0;fontSize=8;" parent="1" vertex="1">
          <mxGeometry x="720" y="440" width="120" height="55" as="geometry" />
        </mxCell>
      </root>
    </mxGraphModel>
  </diagram>
</mxfile>
